<svg xmlns="http://www.w3.org/2000/svg" viewBox="0 0 209.32 209.32"><defs><style>.cls-1{fill:none;}</style></defs><g id="Ebene_2" data-name="Ebene 2"><g id="Ebene_1-2" data-name="Ebene 1"><g id="Ebene_2-2" data-name="Ebene 2"><g id="Gruppe_maskieren_1" data-name="Gruppe maskieren 1"><g id="Layer_2" data-name="Layer 2"><g id="invisible_box" data-name="invisible box"><rect id="Rechteck_25" data-name="Rechteck 25" class="cls-1" width="209.32" height="209.32"/></g><g id="icons_Q2" data-name="icons Q2"><path id="Pfad_1" data-name="Pfad 1" d="M189.26,128.21l-13.95-14a19.6,19.6,0,0,1-5.24-12.64V74.13c0-35.32-23.54-65.41-65.41-65.41S39.25,37.94,39.25,74.13v30.53a11.34,11.34,0,0,1-3,7.41L20.06,128.21a8.76,8.76,0,0,0-2.62,6.1v31.4a8.72,8.72,0,0,0,8.73,8.72h48.4a30.52,30.52,0,0,0,60.18,0h48.41a8.72,8.72,0,0,0,8.72-8.72h0v-31.4A8.67,8.67,0,0,0,189.26,128.21ZM174.43,157H34.89V138.24l13.52-14a27.92,27.92,0,0,0,8.28-19.62V74.13c0-23.11,12.65-48,48-48s48,25.72,48,48v27.47a37.53,37.53,0,0,0,10,24.86l11.77,11.77Z"/></g></g></g></g></g></g></svg>