<svg xmlns="http://www.w3.org/2000/svg" viewBox="0 0 287.87 287.87"><defs><style>.cls-1{fill:none;}</style></defs><g id="Ebene_2" data-name="Ebene 2"><g id="Ebene_1-2" data-name="Ebene 1"><g id="Ebene_2-2" data-name="Ebene 2"><g id="invisible_box" data-name="invisible box"><rect id="Rechteck_26" data-name="Rechteck 26" class="cls-1" width="287.87" height="287.87"/></g><g id="icons_Q2" data-name="icons Q2"><path id="Pfad_2" data-name="Pfad 2" d="M143.83,56.93l23.37,47.94,6,10.79,12,1.8,52.74,7.79L200.16,162.4l-9,8.39,1.8,12.59,9,52.13L155.21,211l-11.38-6-11.39,6L85.7,235.52l9-52.14,1.8-12.58-9-8.39L49.74,125.25l52.74-7.79,12-1.8,6-10.79,23.37-47.94m0-38.95A12.59,12.59,0,0,0,133,24.57L98.88,94.09,22.17,104.87a12.59,12.59,0,0,0-6.59,21l55.14,53.34-12.59,76.7a12,12,0,0,0,10,13.66,12.33,12.33,0,0,0,1.35.13l6-1.2,68.32-36,68.32,36,6,1.2a12,12,0,0,0,11.51-12.44,12.3,12.3,0,0,0-.12-1.35l-12.59-76.7,55.13-53.34a12.59,12.59,0,0,0-6.59-21L188.77,94.09,154.62,24.57A12.61,12.61,0,0,0,143.83,18Z"/></g></g></g></g></svg>