<svg xmlns="http://www.w3.org/2000/svg" viewBox="0 0 169.67 35.98"><defs><style>.cls-1{fill:#fff;}</style></defs><g id="Ebene_2" data-name="Ebene 2"><g id="Ebene_1-2" data-name="Ebene 1"><path class="cls-1" d="M7.28,6.22H0V1.1H20.75V6.22H13.37V28.06H7.28Z"/><path class="cls-1" d="M40.81,18.07c0,7.16-5.07,10.43-10.31,10.43-5.7,0-10.11-3.77-10.11-10.09S24.55,8,30.85,8C36.83,8,40.81,12.16,40.81,18.07Zm-14.15.2c0,3.34,1.41,5.88,4,5.88,2.38,0,3.88-2.38,3.88-5.91,0-2.88-1.11-5.85-3.87-5.85S26.66,15.37,26.66,18.27Z"/><path class="cls-1" d="M44.07,15.06c0-2.57-.08-4.74-.16-6.58h5.28l.29,2.74h.08A7.58,7.58,0,0,1,56.08,8c4.28,0,8.13,3.73,8.13,10,0,7.14-4.55,10.49-8.9,10.49a6,6,0,0,1-5.08-2.24h-.08V36H44.07Zm6.08,4.62A5.69,5.69,0,0,0,50.28,21a3.67,3.67,0,0,0,3.55,2.88c2.63,0,4.2-2.21,4.2-5.53,0-3.12-1.39-5.49-4.1-5.49a3.82,3.82,0,0,0-3.64,3.07A4.4,4.4,0,0,0,50.15,17Z"/><path class="cls-1" d="M73.67,3.05a3,3,0,0,1-3.28,3,3,3,0,0,1-3.16-3,3.22,3.22,0,0,1,6.44,0Zm-6.27,25V8.48h6.09V28.06Z"/><path class="cls-1" d="M92.34,27.57a14.42,14.42,0,0,1-5.45.91c-6.32,0-10.35-3.88-10.35-10,0-5.73,3.91-10.4,11.19-10.4a14.07,14.07,0,0,1,4.65.77l-.95,4.52A8.22,8.22,0,0,0,88,12.73a5.08,5.08,0,0,0-5.26,5.48,5.12,5.12,0,0,0,5.36,5.5,9.11,9.11,0,0,0,3.51-.63Z"/><path class="cls-1" d="M96,22.75a11.74,11.74,0,0,0,5.22,1.46c1.84,0,2.62-.62,2.62-1.62s-.62-1.5-2.87-2.26c-4.07-1.34-5.6-3.55-5.58-5.85,0-3.68,3.1-6.44,8-6.44a13,13,0,0,1,5.51,1.14l-1.06,4.19a10,10,0,0,0-4.24-1.1c-1.48,0-2.33.59-2.33,1.58s.77,1.43,3.17,2.26c3.72,1.26,5.27,3.17,5.3,6,0,3.65-2.85,6.35-8.46,6.35a14,14,0,0,1-6.34-1.38Z"/><path class="cls-1" d="M113,1.48a35,35,0,0,1,6.42-.56c4.34,0,7.45,1,9.54,3,2.32,2.07,3.77,5.3,3.77,10,0,5-1.42,8.46-3.69,10.76s-6,3.59-10.58,3.59A44.49,44.49,0,0,1,113,28Zm3.36,23.91a19.8,19.8,0,0,0,2.81.14c6.24,0,10-3.64,10-11.49,0-6.49-3.12-10.42-9.56-10.42a16.65,16.65,0,0,0-3.29.29Z"/><path class="cls-1" d="M140,3.38a2.07,2.07,0,1,1-4.14,0,2,2,0,0,1,2.07-2.13A2,2,0,0,1,140,3.38Zm-3.75,24.68V8.72h3.37V28.06Z"/><path class="cls-1" d="M156.76,27.42a11.19,11.19,0,0,1-4.84,1c-5.35,0-8.89-3.8-8.89-9.86,0-5.84,3.69-10.24,9.57-10.24a9.62,9.62,0,0,1,4.24.91l-.73,2.64a7.44,7.44,0,0,0-3.54-.81c-4,0-6.12,3.42-6.11,7.37,0,4.5,2.53,7.24,6.08,7.24a8.47,8.47,0,0,0,3.68-.81Z"/><path class="cls-1" d="M165,3.27V8.72h4.65v2.56H165V22c0,2.44.76,3.59,2.47,3.59a6.75,6.75,0,0,0,1.8-.21l.15,2.58a8.22,8.22,0,0,1-2.88.43A4.61,4.61,0,0,1,163,27c-.91-1-1.3-2.59-1.3-5V11.28h-2.81V8.72h2.81V4.18Z"/></g></g></svg>