<svg xmlns="http://www.w3.org/2000/svg" xmlns:xlink="http://www.w3.org/1999/xlink" viewBox="0 0 38.71 37.86"><defs><style>.cls-1{fill:url(#Unbenannter_Verlauf_9);}</style><linearGradient id="Unbenannter_Verlauf_9" y1="18.93" x2="38.71" y2="18.93" gradientUnits="userSpaceOnUse"><stop offset="0" stop-color="#f7931e"/><stop offset="1" stop-color="#ed1c24"/></linearGradient></defs><g id="Ebene_2" data-name="Ebene 2"><g id="Ebene_1-2" data-name="Ebene 1"><path class="cls-1" d="M38.7,15.73l-2.85,6.65a.18.18,0,0,1-.16.1H29.92a.18.18,0,0,0-.17.13c-2,7.92-19,26.86-29.73,5.22a.18.18,0,0,1,.18-.26c1.41.25,6.21.71,8.6-4.09l0-.06a2.7,2.7,0,0,0-1.16-3.5C4.74,18.27-2.47,12.68,3.5.1a.18.18,0,0,1,.34,0C4.19,2,6.91,6.91,26.8,1.48c11-3,12,9,6,9H12a.16.16,0,0,0-.17.15l-.93,4.64a.17.17,0,0,0,.17.21h9.91a.18.18,0,0,1,.08.34,6.9,6.9,0,0,0-2.34,1.59c-.79,1-5.05,10.12-5.76,11.83a.17.17,0,0,0,.16.24h5.61l.17-.11,6-13.77.16-.12H38.53A.18.18,0,0,1,38.7,15.73Z"/></g></g></svg>